<?xml version="1.0" encoding="UTF-8"?>
<!DOCTYPE svg PUBLIC "-//W3C//DTD SVG 1.1//EN" "http://www.w3.org/Graphics/SVG/1.1/DTD/svg11.dtd">
<svg xmlns="http://www.w3.org/2000/svg" version="1.1" width="3840px" height="2160px" style="shape-rendering:geometricPrecision; text-rendering:geometricPrecision; image-rendering:optimizeQuality; fill-rule:evenodd; clip-rule:evenodd" xmlns:xlink="http://www.w3.org/1999/xlink">
<g><path style="opacity:0.995" fill="#16a800" d="M 3303.5,551.5 C 3349.5,551.5 3395.5,551.5 3441.5,551.5C 3441.5,687.5 3441.5,823.5 3441.5,959.5C 3482.35,960.031 3521.02,951.198 3557.5,933C 3609.83,902.588 3637.5,856.921 3640.5,796C 3640.36,792.379 3640.36,788.545 3640.5,784.5C 3686.17,784.5 3731.83,784.5 3777.5,784.5C 3775.95,872.746 3742.62,946.246 3677.5,1005C 3654.12,1025 3628.12,1041 3599.5,1053C 3672.44,1160.27 3745.78,1267.27 3819.5,1374C 3767.5,1374.67 3715.5,1374.67 3663.5,1374C 3599.83,1277.67 3536.17,1181.33 3472.5,1085C 3462.17,1084.5 3451.84,1084.33 3441.5,1084.5C 3441.5,1181.17 3441.5,1277.83 3441.5,1374.5C 3395.5,1374.5 3349.5,1374.5 3303.5,1374.5C 3303.5,1100.17 3303.5,825.833 3303.5,551.5 Z"/></g>
<g><path style="opacity:0.994" fill="#16a800" d="M 1030.5,764.5 C 1061.29,764.229 1091.63,766.396 1121.5,771C 1221.84,793.024 1295.01,849.858 1341,941.5C 1363.29,991.179 1373.12,1042.35 1370.5,1095C 1366.21,1188.91 1328.54,1266.24 1257.5,1327C 1177.16,1388.74 1087.49,1408.74 988.5,1387C 933.419,1373.05 884.919,1347.22 843,1309.5C 826.414,1408.77 810.247,1508.1 794.5,1607.5C 747.5,1607.5 700.5,1607.5 653.5,1607.5C 677.91,1467.12 702.576,1326.79 727.5,1186.5C 665.3,1094.75 619.8,995.08 591,887.5C 590.667,958.833 590.333,1030.17 590,1101.5C 587.9,1178.5 562.566,1246.5 514,1305.5C 464.619,1358.94 403.452,1388.44 330.5,1394C 237.321,1400.79 159.154,1370.29 96,1302.5C 49.2777,1245.37 23.9443,1179.7 20,1105.5C 19.3333,997.833 19.3333,890.167 20,782.5C 66,781.167 112,781.167 158,782.5C 158.333,888.5 158.667,994.5 159,1100.5C 160.748,1136.5 170.415,1170.17 188,1201.5C 223.34,1254.74 272.84,1276.24 336.5,1266C 372.947,1258.87 401.114,1239.7 421,1208.5C 440.006,1175.8 450.34,1140.47 452,1102.5C 452.168,995.597 452.668,888.764 453.5,782C 533.167,781.333 612.833,781.333 692.5,782C 708.903,854.875 733.069,925.042 765,992.5C 788.749,898.1 844.582,830.266 932.5,789C 963.96,775.468 996.626,767.302 1030.5,764.5 Z M 1045.5,891.5 C 1126.31,887.798 1183.48,922.465 1217,995.5C 1236.1,1047.37 1237.44,1099.7 1221,1152.5C 1200.13,1211.71 1159.3,1248.88 1098.5,1264C 1084.27,1266.19 1070.11,1268.02 1056,1269.5C 975.346,1261.2 912.679,1223.53 868,1156.5C 872.704,1100.68 886.037,1047.02 908,995.5C 923.594,959.911 947.761,931.744 980.5,911C 1000.94,899.979 1022.61,893.479 1045.5,891.5 Z"/></g>
<g><path style="opacity:0.995" fill="#16a800" d="M 2511.5,764.5 C 2602.01,760.057 2681.01,787.89 2748.5,848C 2809.01,906.713 2841.35,978.38 2845.5,1063C 2850.83,1164.98 2816.5,1250.98 2742.5,1321C 2657.59,1392.23 2561.59,1414.57 2454.5,1388C 2344.81,1353.64 2273.31,1281.47 2240,1171.5C 2234.83,1152.15 2231.5,1132.48 2230,1112.5C 2221.05,1017.87 2247.38,934.871 2309,863.5C 2363.9,804.97 2431.4,771.97 2511.5,764.5 Z M 2532.5,893.5 C 2580.75,892.696 2622.91,909.696 2659,944.5C 2692.96,982.873 2709.46,1027.87 2708.5,1079.5C 2709.33,1129.52 2694.16,1173.85 2663,1212.5C 2628.88,1248.48 2587.05,1267.48 2537.5,1269.5C 2461.82,1267.58 2409.66,1231.58 2381,1161.5C 2365.7,1116.86 2363.37,1071.53 2374,1025.5C 2384.68,983.59 2407.18,949.756 2441.5,924C 2468.98,905.118 2499.31,894.952 2532.5,893.5 Z"/></g>
<g><path style="opacity:0.995" fill="#16a800" d="M 3185.5,776.5 C 3205.52,776.241 3225.52,776.574 3245.5,777.5C 3245.5,822.5 3245.5,867.5 3245.5,912.5C 3213.22,909.807 3181.22,911.64 3149.5,918C 3107.5,927.684 3078,952.184 3061,991.5C 3050.82,1019.93 3045.15,1049.26 3044,1079.5C 3042.55,1177.82 3042.05,1276.16 3042.5,1374.5C 2996.5,1374.5 2950.5,1374.5 2904.5,1374.5C 2904.5,1177.83 2904.5,981.167 2904.5,784.5C 2949.83,784.5 2995.17,784.5 3040.5,784.5C 3040.33,805.169 3040.5,825.836 3041,846.5C 3069.61,812.6 3105.78,791.1 3149.5,782C 3161.57,779.662 3173.57,777.828 3185.5,776.5 Z"/></g>
<g><path style="opacity:0.994" fill="#16a800" d="M 1365.5,783.5 C 1411.83,783.5 1458.17,783.5 1504.5,783.5C 1537.33,920.153 1570.16,1056.82 1603,1193.5C 1638.79,1057.35 1674.12,921.018 1709,784.5C 1767.43,783.502 1825.93,783.169 1884.5,783.5C 1919.19,920.609 1954.36,1057.61 1990,1194.5C 2023.15,1057.56 2055.99,920.558 2088.5,783.5C 2137.5,783.5 2186.5,783.5 2235.5,783.5C 2182.17,980.5 2128.83,1177.5 2075.5,1374.5C 2020.16,1374.83 1964.83,1374.5 1909.5,1373.5C 1871.85,1235.22 1834.35,1096.88 1797,958.5C 1758.55,1096.64 1720.55,1234.98 1683,1373.5C 1627.9,1374.66 1572.74,1374.83 1517.5,1374C 1466.29,1177.31 1415.62,980.477 1365.5,783.5 Z"/></g>
</svg>
