<?xml version="1.0" standalone="no"?>
<!DOCTYPE svg PUBLIC "-//W3C//DTD SVG 20010904//EN"
 "http://www.w3.org/TR/2001/REC-SVG-20010904/DTD/svg10.dtd">
<svg version="1.0" xmlns="http://www.w3.org/2000/svg"
 width="512.000000pt" height="512.000000pt" viewBox="0 0 512.000000 512.000000"
 preserveAspectRatio="xMidYMid meet">

<g transform="translate(0.000000,512.000000) scale(0.100000,-0.100000)"
fill="#000000" stroke="none">
<path d="M583 5099 c-84 -27 -169 -104 -209 -191 l-29 -63 0 -2075 0 -2075 33
-67 c40 -81 110 -148 190 -180 l57 -23 1190 -3 1191 -2 16 -28 c9 -15 49 -60
90 -100 386 -387 993 -388 1379 -3 162 162 254 353 280 584 55 472 -262 929
-724 1047 l-72 18 -5 1463 -5 1464 -34 63 c-41 75 -94 125 -170 161 l-56 26
-1530 2 c-1500 2 -1531 2 -1592 -18z m3112 -158 c47 -22 89 -64 104 -104 8
-20 11 -472 11 -1456 l0 -1428 -84 -6 c-342 -24 -653 -239 -803 -553 -60 -127
-84 -224 -90 -372 -7 -142 6 -239 47 -360 l28 -82 -1131 2 -1132 3 -47 27
c-35 21 -53 41 -72 81 l-26 53 2 2041 3 2041 30 43 c17 23 50 53 74 66 l44 23
1501 0 c1440 0 1503 -1 1541 -19z m270 -3166 c199 -42 395 -169 502 -326 101
-148 145 -289 146 -469 1 -154 -15 -225 -86 -370 -45 -94 -61 -116 -151 -206
-83 -82 -117 -108 -191 -146 -113 -58 -213 -87 -332 -95 -325 -22 -633 157
-779 452 -66 135 -79 194 -79 365 0 124 3 156 23 220 99 312 346 530 662 583
60 10 221 5 285 -8z"/>
<path d="M825 4726 c-39 -18 -79 -63 -94 -105 -7 -22 -11 -126 -11 -291 0
-274 4 -305 49 -354 49 -53 66 -56 364 -56 267 0 275 1 317 23 30 16 51 37 67
67 22 42 23 50 23 320 0 270 -1 278 -23 320 -16 30 -37 51 -67 67 -42 22 -50
23 -319 23 -208 -1 -283 -4 -306 -14z m555 -396 l0 -250 -250 0 -250 0 0 250
0 250 250 0 250 0 0 -250z"/>
<path d="M1912 4634 c-32 -22 -44 -58 -31 -91 21 -55 -14 -52 797 -53 l753 0
24 25 c40 40 30 96 -22 123 -16 9 -218 12 -760 12 -661 0 -741 -2 -761 -16z"/>
<path d="M1908 4156 c-26 -19 -39 -62 -28 -90 22 -58 -13 -56 793 -56 542 0
744 3 760 12 52 27 62 83 22 123 l-24 25 -753 0 c-602 -1 -756 -3 -770 -14z"/>
<path d="M825 3686 c-41 -19 -83 -66 -95 -107 -6 -18 -10 -151 -10 -294 0
-286 6 -317 65 -363 50 -40 87 -44 370 -40 261 3 271 4 307 26 21 13 45 40 57
66 20 40 21 60 21 317 0 265 -1 276 -22 319 -17 33 -35 51 -68 68 -43 21 -54
22 -320 22 -207 -1 -282 -4 -305 -14z m555 -396 l0 -250 -247 2 -248 3 -3 248
-2 247 250 0 250 0 0 -250z"/>
<path d="M1904 3587 c-35 -31 -37 -77 -4 -112 l23 -25 754 0 754 0 24 25 c30
29 32 74 6 106 l-19 24 -755 3 -755 2 -28 -23z"/>
<path d="M1912 3123 c-21 -8 -43 -61 -36 -88 3 -14 18 -34 31 -45 25 -20 43
-20 765 -20 543 0 745 3 761 12 52 27 62 83 22 123 l-24 25 -753 -1 c-414 0
-759 -3 -766 -6z"/>
<path d="M815 2640 c-22 -11 -51 -36 -65 -57 -25 -36 -25 -37 -28 -304 -2
-179 1 -282 8 -310 15 -53 64 -104 115 -118 50 -14 526 -15 575 -1 41 11 94
61 109 103 7 18 11 134 11 305 0 269 -1 278 -23 317 -13 22 -40 49 -62 62 -39
22 -48 23 -320 23 -260 0 -283 -1 -320 -20z m565 -390 l0 -250 -247 2 -248 3
-3 248 -2 247 250 0 250 0 0 -250z"/>
<path d="M1904 2547 c-20 -17 -27 -33 -27 -57 0 -24 7 -40 27 -57 l27 -23 750
0 750 0 24 25 c33 32 33 78 0 110 l-24 25 -750 0 -750 0 -27 -23z"/>
<path d="M1909 2080 c-29 -17 -43 -65 -27 -96 25 -54 17 -54 646 -54 616 0
629 1 646 45 12 32 6 71 -14 93 l-21 22 -607 0 c-363 0 -614 -4 -623 -10z"/>
<path d="M805 1596 c-77 -47 -80 -56 -83 -358 -2 -179 1 -281 8 -309 15 -53
64 -104 115 -118 52 -14 517 -15 568 0 51 14 104 63 118 107 6 24 9 137 7 318
l-3 281 -27 35 c-50 66 -63 68 -380 68 -281 0 -283 0 -323 -24z m575 -386 l0
-250 -247 2 -248 3 -3 248 -2 247 250 0 250 0 0 -250z"/>
<path d="M1900 1505 c-33 -35 -31 -81 4 -112 l27 -23 369 0 c368 0 369 0 395
23 35 29 37 78 5 112 l-23 25 -377 0 -377 0 -23 -25z"/>
<path d="M1912 1043 c-21 -8 -43 -61 -36 -87 3 -14 15 -33 26 -43 18 -16 46
-18 322 -21 165 -2 316 0 334 3 68 13 96 89 49 133 -23 22 -28 22 -353 21
-181 0 -335 -3 -342 -6z"/>
<path d="M3998 1073 l-258 -258 -193 193 c-180 179 -195 192 -229 192 -28 0
-42 -6 -57 -26 -43 -54 -38 -61 211 -310 127 -128 242 -235 255 -239 13 -3 36
1 51 9 40 22 569 557 581 589 13 33 1 69 -31 91 -50 36 -58 30 -330 -241z"/>
</g>
</svg>
