<?xml version="1.0" encoding="utf-8"?>

<!DOCTYPE svg PUBLIC "-//W3C//DTD SVG 1.1//EN" "http://www.w3.org/Graphics/SVG/1.1/DTD/svg11.dtd">
<!-- Uploaded to: SVG Repo, www.svgrepo.com, Generator: SVG Repo Mixer Tools -->
<svg fill="#001e00" version="1.1" id="Layer_1" xmlns="http://www.w3.org/2000/svg" xmlns:xlink="http://www.w3.org/1999/xlink" 
	 width="800px" height="800px" viewBox="0 0 72 72" enable-background="new 0 0 72 72" xml:space="preserve">
<g>
	<path d="M68.73,19.498c-0.053-2.139-0.885-4.171-2.282-5.568l-8.292-8.297c-1.362-1.361-3.233-2.122-5.268-2.122
		c-2.14,0-4.207,0.822-5.675,2.289L30.975,22.003c-9.569-2.77-19.993-0.158-27.121,6.973c-0.379,0.378-0.59,0.893-0.586,1.428
		c0.002,0.535,0.22,1.046,0.604,1.419c4.752,4.628,10.729,10.586,16.56,16.438L4.623,63.846c-0.787,0.775-0.795,2.041-0.02,2.828
		C4.995,67.07,5.51,67.27,6.027,67.27c0.508,0,1.015-0.19,1.405-0.576l15.822-15.599c3.028,3.044,5.954,5.993,8.577,8.638
		c3.281,3.31,6.112,6.162,8.12,8.17c0.376,0.375,0.884,0.586,1.415,0.586c0.53,0,1.038-0.211,1.413-0.586
		c6.989-6.986,9.655-16.949,7.183-26.398L66.6,25.163C68.007,23.756,68.784,21.69,68.73,19.498z M41.309,63.6
		c-1.826-1.834-4.098-4.123-6.639-6.686c-7.908-7.971-18.558-18.708-26.496-26.48c6.03-5.072,14.231-6.787,21.791-4.562
		l15.867,15.76C48.158,49.325,46.455,57.517,41.309,63.6z M63.771,22.338L47.83,38.277L34.474,24.885
		c0.029-0.214,0.022-0.426-0.016-0.632L50.042,8.669c0.724-0.722,1.761-1.137,2.847-1.137c0.965,0,1.832,0.334,2.438,0.94
		l8.292,8.292c0.669,0.669,1.085,1.729,1.111,2.835C64.757,20.702,64.408,21.701,63.771,22.338z"/>
	<path d="M41.422,20.893l-0.387,0.385c-0.393,0.39-0.393,1.022-0.003,1.414c0.194,0.196,0.452,0.294,0.709,0.294
		c0.255,0,0.511-0.097,0.704-0.292l0.388-0.385c0.392-0.39,0.394-1.022,0.003-1.414S41.813,20.501,41.422,20.893z"/>
	<path d="M55.488,12.3c-1.483-1.485-4.037-1.438-5.576,0.101l-6.523,6.523c-0.391,0.391-0.391,1.023,0,1.414
		c0.195,0.195,0.451,0.293,0.707,0.293s0.512-0.097,0.707-0.293l6.523-6.523c0.746-0.745,2.057-0.792,2.749-0.101l4.254,4.254
		c0.392,0.391,1.022,0.391,1.414,0c0.391-0.391,0.391-1.023,0-1.414L55.488,12.3z"/>
</g>
</svg>